<svg width="289" height="142" viewBox="0 0 289 142" fill="none" xmlns="http://www.w3.org/2000/svg">
<path d="M226.568 25.397C229.219 31.5607 228.509 41.1382 234.783 41.8494C239.613 42.4184 243.495 38.9335 239.376 32.4142C235.256 25.8711 230.19 17.882 217.855 10.8648C207.698 5.10408 187.148 -1.01224 155.731 0.931704C118.727 3.20755 84.9182 11.5049 59.9881 23.6901C39.2011 33.8603 22.7468 45.9744 11.6194 61.4549C1.95988 74.8965 -2.77518 92.3684 1.93621 107.446C4.46946 115.553 11.501 128.853 38.2068 135.538C69.1504 143.29 103.74 142.437 129.12 136.51C151.375 131.295 167.45 123.566 178.388 115.506C190.936 106.284 199.743 97.4653 211.226 85.6594C221.501 75.1099 226.899 67.263 223.561 64.9634C220.057 62.5454 216.624 67.8319 214.138 71.1272C209.663 77.0538 207.248 80.5387 199.152 89.7606C192.262 97.6312 188.521 101.377 182.342 106.592C168.563 118.209 156.228 124.135 147.042 127.288C121.449 136.06 89.5585 133.926 76.4424 132.124C40.9058 127.288 24.0963 118.351 18.651 103.819C13.4424 89.9029 20.8291 63.3751 50.8257 40.6167C71.0208 25.2785 95.0749 12.785 146.805 5.74416C198.56 -1.27302 216.979 12.4057 220.057 14.9661C225.834 19.8259 226.449 25.1125 226.568 25.397Z" fill="#00B66A"></path>
<path d="M187.266 102.396C187.551 97.086 185.088 89.8555 179.288 85.6831C172.706 80.9655 162.478 77.6939 149.197 78.903C135.891 80.112 133.973 84.237 134.21 86.8921C134.447 89.5473 137.832 91.0171 147.516 89.3102C157.199 87.627 166.858 87.3663 174.103 91.7283C181.348 96.0903 180.377 104.482 179.785 107.825C178.933 112.661 184.023 107.707 184.023 107.707C184.023 107.707 187.03 106.995 187.266 102.396Z" fill="#00B66A"></path>
<path d="M191.149 60.5067C191.149 60.5067 186.319 57.733 180.14 57.1167C173.985 56.5003 167.095 56.1447 156.938 59.6059C150.025 61.9528 144.722 67.1683 145.811 71.5303C146.9 75.8924 155.541 76.485 160.679 76.485C166.361 76.485 169.131 75.7501 173.985 74.1855C178.814 72.6208 182.318 69.5864 185.349 68.8515C188.379 68.1166 193.209 66.7179 195.742 65.4614C198.512 64.0627 198.773 62.3084 198.512 61.0994C198.275 59.8903 196.665 58.302 194.511 58.4917C192.404 58.6813 188.213 60.7912 187.148 62.5455C186.012 64.3709 185.207 66.1252 181.584 68.1166C174.316 72.123 168.658 73.9247 163.804 74.0432C158.974 74.1618 154.026 71.0562 159.495 65.8881C163.757 61.858 170.93 60.3645 177.702 60.2459C184.473 60.1274 189.184 63.1619 189.184 63.1619L191.149 60.5067Z" fill="#00B66A"></path>
<path d="M184.496 67.9032C184.496 67.9032 182.271 70.3212 182.863 73.2372C183.478 76.1531 185.585 77.2436 188.853 77.2436C192.12 77.2436 195.505 76.888 196.95 76.2716C198.394 75.6552 198.275 74.0906 196.476 74.3277C194.653 74.5647 190.794 74.944 188.616 74.0906C186.438 73.2372 186.935 71.6725 189.089 70.2264C191.268 68.7803 196.879 65.2717 197.494 63.8019C198.086 62.3321 184.496 67.9032 184.496 67.9032Z" fill="#00B66A"></path>
<path d="M215.558 45.7374C217.831 47.8236 221.122 52.636 220.506 55.1726C219.891 57.7093 216.269 57.8278 212.173 54.0821C208.053 50.3365 204.549 52.2567 201.898 49.0089C199.246 45.7374 202.868 42.9637 206.846 42.2288C210.847 41.4939 214.114 44.4098 215.558 45.7374Z" fill="#00B66A"></path>
<path d="M237.434 51.6639C242.075 49.2222 248.798 45.0024 252.658 44.5282C256.517 44.0541 261.37 44.5282 261.962 48.5347C262.578 52.5411 255.428 52.7782 251.805 52.3988C248.183 52.0432 243.945 51.0713 240.559 53.4894C237.174 55.9074 234.759 56.8794 232.936 56.026C231.113 55.1725 233.291 53.7264 233.788 53.4894C234.309 53.2523 234.901 52.9915 237.434 51.6639Z" fill="#00B66A"></path>
<path d="M281.281 61.1229C281.281 61.1229 276.451 58.3493 270.272 57.7329C264.116 57.1165 257.227 56.7609 247.07 60.2221C240.157 62.569 234.854 67.7845 235.943 72.1465C237.032 76.5086 245.673 77.1012 250.811 77.1012C256.493 77.1012 259.263 76.3663 264.116 74.8017C268.946 73.2371 272.45 70.2026 275.481 69.4677C278.511 68.7328 283.341 67.3341 285.874 66.0776C288.644 64.6789 288.904 62.9246 288.644 61.7156C288.407 60.5066 286.797 58.9182 284.643 59.1079C282.536 59.2975 278.345 61.4074 277.28 63.1617C276.143 64.9871 275.339 66.7414 271.716 68.7328C264.448 72.7392 258.789 74.5409 253.936 74.6595C249.106 74.778 244.158 71.6724 249.627 66.5044C253.889 62.4742 261.062 60.9807 267.833 60.8622C274.605 60.7436 279.316 63.7781 279.316 63.7781L281.281 61.1229Z" fill="#00B66A"></path>
<path d="M274.628 68.4958C274.628 68.4958 272.403 70.9139 272.995 73.8298C273.61 76.7457 275.717 77.8362 278.985 77.8362C282.252 77.8362 285.637 77.4806 287.081 76.8643C288.526 76.2479 288.407 74.6832 286.608 74.9203C284.785 75.1574 280.926 75.5367 278.748 74.6832C276.57 73.8298 277.067 72.2652 279.221 70.8191C281.399 69.3729 287.01 65.8644 287.626 64.3945C288.218 62.9247 274.628 68.4958 274.628 68.4958Z" fill="#00B66A"></path>
<path d="M177.962 93.0796C177.962 93.0796 181.348 98.6507 179.406 104.696C177.465 110.741 172.635 113.657 169.486 116.431C166.338 119.204 184.118 108.56 184.118 108.56L177.962 93.0796Z" fill="#00B66A"></path>
</svg>
