<svg width="289" height="142" viewBox="0 0 289 142" fill="none" xmlns="http://www.w3.org/2000/svg">
<path d="M226.568 25.397C229.219 31.5607 228.509 41.1382 234.783 41.8494C239.613 42.4184 243.495 38.9335 239.376 32.4142C235.256 25.8711 230.19 17.882 217.855 10.8648C207.698 5.10408 187.148 -1.01224 155.731 0.931704C118.727 3.20755 84.9182 11.5049 59.9881 23.6901C39.2011 33.8603 22.7468 45.9744 11.6194 61.4549C1.95988 74.8965 -2.77518 92.3684 1.93621 107.446C4.46946 115.553 11.501 128.853 38.2068 135.538C69.1504 143.29 103.74 142.437 129.12 136.51C151.375 131.295 167.45 123.566 178.388 115.506C190.936 106.284 199.743 97.4653 211.226 85.6594C221.501 75.1099 226.899 67.263 223.561 64.9634C220.057 62.5454 216.624 67.8319 214.138 71.1272C209.663 77.0538 207.248 80.5387 199.152 89.7606C192.262 97.6312 188.521 101.377 182.342 106.592C168.563 118.209 156.228 124.135 147.042 127.288C121.449 136.06 89.5585 133.926 76.4424 132.124C40.9058 127.288 24.0963 118.351 18.651 103.819C13.4424 89.9029 20.8291 63.3751 50.8257 40.6167C71.0208 25.2785 95.0749 12.785 146.805 5.74416C198.56 -1.27302 216.979 12.4057 220.057 14.9661C225.834 19.8259 226.449 25.1125 226.568 25.397Z" fill="#00B66A"></path>
<path d="M187.266 102.396C187.551 97.086 185.088 89.8555 179.288 85.6831C172.706 80.9655 162.478 77.6939 149.197 78.903C135.891 80.112 133.973 84.237 134.21 86.8921C134.447 89.5473 137.832 91.0171 147.516 89.3102C157.199 87.627 166.858 87.3663 174.103 91.7283C181.348 96.0903 180.377 104.482 179.785 107.825C178.933 112.661 184.023 107.707 184.023 107.707C184.023 107.707 187.03 106.995 187.266 102.396Z" fill="#00B66A"></path>
<path d="M215.558 45.7374C217.831 47.8236 221.122 52.636 220.506 55.1726C219.891 57.7093 216.269 57.8278 212.173 54.0821C208.053 50.3365 204.549 52.2567 201.898 49.0089C199.246 45.7374 202.868 42.9637 206.846 42.2288C210.847 41.4939 214.114 44.4098 215.558 45.7374Z" fill="#00B66A"></path>
<path d="M237.434 51.6639C242.075 49.2222 248.798 45.0024 252.658 44.5282C256.517 44.0541 261.37 44.5282 261.962 48.5347C262.578 52.5411 255.428 52.7782 251.805 52.3988C248.183 52.0432 243.945 51.0713 240.559 53.4894C237.174 55.9074 234.759 56.8794 232.936 56.026C231.113 55.1725 233.291 53.7264 233.788 53.4894C234.309 53.2523 234.901 52.9915 237.434 51.6639Z" fill="#00B66A"></path>
<path d="M177.962 93.0796C177.962 93.0796 181.348 98.6507 179.406 104.696C177.465 110.741 172.635 113.657 169.486 116.431C166.338 119.204 184.118 108.56 184.118 108.56L177.962 93.0796Z" fill="#00B66A"></path>
</svg>
